<svg
  width="56"
  height="56"
  viewBox="0 0 56 56"
  xmlns="http://www.w3.org/2000/svg">
  <g
    fill="#ffffff"
  >
    <path
      d="M51.9669 26.9899C51.9669 25.9882 51.8601 24.9983 51.6432 24.0203C51.6331 23.9091 51.6323 23.797 51.6112 23.6875C50.9588 20.2386 49.6144 17.0828 47.5931 14.2186C46.4589 12.6129 45.1708 11.1437 43.6499 9.89099C43.5498 9.79495 43.4548 9.69301 43.3489 9.6054C39.139 6.12784 34.3138 4.24837 28.8579 4.02175C27.3336 3.95857 25.8126 4.02596 24.3085 4.31745C24.1832 4.32756 24.0562 4.32756 23.9335 4.3503C20.7217 4.9577 17.7041 6.07139 14.9774 7.89947C9.1382 11.8134 5.52535 17.2294 4.33984 24.1719C3.5411 28.8499 4.15487 33.3881 6.13324 37.7317C10.6197 47.5815 21.3901 54.0834 33.056 51.3876C42.4089 49.2259 48.4263 43.2716 51.2035 34.068C51.8979 31.7665 52.0854 29.3899 51.9669 26.9899ZM49.4504 33.5625C46.9087 41.7611 41.6429 47.3616 33.2771 49.402C23.9545 51.6748 16.2428 48.6244 10.3388 41.1065C7.27922 37.2111 5.73302 32.7108 5.82383 27.7337C5.93733 21.5461 8.34786 16.3196 12.7687 12.0434C15.7636 9.14628 19.3251 7.23901 23.4055 6.3376C23.4584 6.32581 23.5072 6.29716 23.5585 6.2761C23.582 6.29801 23.6064 6.31486 23.6316 6.32749C23.6543 6.29885 23.6787 6.27442 23.7048 6.25589C24.7087 6.11941 25.7084 5.94419 26.7224 5.88943C32.4893 5.58278 37.5811 7.31819 42.049 10.9592C43.4893 12.1327 44.7698 13.4739 45.846 14.97C48.064 18.0567 49.585 21.4551 50.0508 25.2772C50.2189 26.652 50.2408 28.0277 50.2004 29.4076H50.1979C50.1979 29.4076 50.1903 29.4119 50.1861 29.4152C50.1903 29.4211 50.1945 29.427 50.1996 29.4321C50.0474 30.8271 49.8675 32.2188 49.4504 33.5625Z"
    />
    <path
      d="M46.6481 27.7371C40.5348 21.6598 34.4181 15.5858 28.3106 9.50262C28.0752 9.26843 27.9591 9.22799 27.6985 9.48914C23.2314 13.9616 18.7526 18.4223 14.2754 22.8855C12.6586 24.4971 11.0392 26.107 9.4207 27.7177C9.22816 27.8399 9.07009 27.9671 9.35176 28.1625C9.59979 28.3992 9.84782 28.6351 10.0959 28.8719C10.2085 28.9948 10.3161 29.1229 10.4338 29.2408C16.1697 34.9576 21.9097 40.6718 27.638 46.3978C27.9205 46.6801 28.0567 46.7365 28.3737 46.4181C31.6544 43.1208 34.9578 39.8454 38.2512 36.5599C39.609 35.2053 40.956 33.8405 42.308 32.48C43.7861 31.0268 45.2616 29.5711 46.7448 28.1238C46.9625 27.9106 46.7498 27.839 46.6481 27.7371ZM28.9168 42.9733V39.1032C28.9151 37.714 28.9151 36.324 28.9134 34.9348V34.9037C28.9126 34.1851 28.9126 33.4673 28.9109 32.7496V32.7192C28.9101 31.9215 28.9092 31.1237 28.9076 30.3259V30.3175C28.9076 29.9965 28.9067 29.6764 28.9059 29.3554V29.3209C28.9059 29.1094 28.9151 28.9822 29.2203 28.9831C32.2076 28.9923 35.1949 28.994 38.1814 28.9948H38.2066C39.6906 28.9948 41.1746 28.9948 42.6586 28.9957C42.7107 28.9957 42.7628 29.005 42.9091 29.0176C38.2672 33.7133 33.6412 38.3197 28.9168 42.9733ZM28.9202 13.0872C29.1068 13.1436 29.2052 13.2809 29.3179 13.3913C30.8489 14.8942 32.3775 16.4005 33.9077 17.9042C34.0069 18.0019 34.1145 18.0904 34.2179 18.1831C34.2676 18.2319 34.3172 18.2799 34.3668 18.328C34.5459 18.5537 34.7468 18.7584 34.978 18.9311C35.0058 19.0053 35.0562 19.0567 35.131 19.0828C35.1689 19.1679 35.2294 19.2294 35.3152 19.2647C36.0012 19.9623 36.6806 20.6657 37.3734 21.3565C38.8692 22.8459 40.3716 24.3295 41.8708 25.8147C41.9036 25.8989 41.9616 25.9587 42.0456 25.9916C42.0734 26.0708 42.1264 26.1247 42.2054 26.1525C42.2382 26.2376 42.2962 26.2965 42.3811 26.3294C42.4097 26.4077 42.4627 26.4608 42.5409 26.4895C42.6334 26.6065 42.7258 26.7228 42.8166 26.8374C42.7275 26.9494 42.6216 26.9014 42.5325 26.9014C38.1478 26.9022 33.7622 26.8963 29.3775 26.9056C29.0311 26.9065 28.905 26.8576 28.9067 26.46C28.9134 24.2343 28.9143 22.0077 28.9126 19.782V19.7584C28.9185 19.4526 28.9252 19.1502 28.9403 18.8444C28.9538 18.5588 28.9319 18.2698 28.9118 17.98V17.9573C28.9101 16.4114 28.9076 14.8664 28.9067 13.3205C28.9067 13.2531 28.9143 13.1849 28.9202 13.0872ZM26.9141 13.243C26.9662 13.3399 26.9847 13.4511 26.9796 13.5842C26.9771 13.6491 26.9729 13.7367 26.9939 13.8041V14.74C26.9309 14.8428 26.9788 14.9902 26.9788 15.1014C26.9695 18.9193 26.9712 22.7373 26.9712 26.5552C26.9712 26.6175 26.9746 26.679 26.9822 26.738C26.9561 26.8458 26.8804 26.9098 26.6627 26.909C22.2805 26.8955 17.8983 26.8997 13.5153 26.8997H13.1967C17.7739 22.2941 22.2855 17.7778 26.9141 13.243ZM26.9956 42.6701C26.9956 42.7071 26.983 42.7434 26.9637 42.8554C22.3024 38.2818 17.7386 33.6872 13.1176 28.9915H15.5525C19.2352 28.9915 22.9186 28.9932 26.6021 28.989C26.8493 28.989 27.0057 28.9788 27.0049 29.3251C26.9914 33.7731 26.9964 38.2212 26.9956 42.6701Z"
    />
    <path
      d="M21.3363 42.3104C20.4266 42.3137 19.516 42.3196 18.6063 42.2994C15.8334 42.2362 13.8424 40.2203 13.8079 37.4461C13.797 36.5346 13.8045 35.6231 13.8012 34.7108C13.8012 34.5743 13.8281 34.4294 13.7121 34.3157C13.1756 33.7917 12.6417 33.2668 12.0439 32.6805C12.1179 34.4555 12.0019 36.1387 12.1146 37.821C12.3492 41.3095 14.9682 43.8908 18.4524 43.9994C20.0331 44.0483 21.6163 44.0138 23.1986 44.0154C23.2608 44.0154 23.3407 44.039 23.3811 43.9363C22.8783 43.4603 22.3679 42.9843 21.8668 42.4982C21.713 42.3483 21.5431 42.3095 21.3363 42.3104Z"
    />
    <path
      d="M34.7132 13.6963C35.596 13.6861 36.478 13.6819 37.36 13.6996C39.8806 13.7485 41.9674 15.6423 42.2415 18.1553C42.3508 19.1603 42.2617 20.1746 42.2769 21.1838C42.2785 21.322 42.2306 21.4744 42.3256 21.5932C42.8234 22.2082 43.4035 22.7406 43.9996 23.2781C43.9778 21.4239 44.1669 19.5866 43.8903 17.7644C43.4439 14.8175 41.1595 12.468 38.3479 12.0965C36.4712 11.848 34.5803 12.0594 32.6961 11.9802C33.1796 12.4933 33.6386 12.9667 34.0809 13.4545C34.2591 13.6508 34.4601 13.6996 34.7132 13.6963Z"
    />
    <path
      d="M13.5817 21.739C13.7507 21.5646 13.8037 21.375 13.7995 21.1358C13.7852 20.3363 13.7844 19.5368 13.7903 18.7374C13.813 15.8697 15.9006 13.7519 18.7652 13.6988C19.6329 13.6836 20.5006 13.7013 21.3682 13.7005C21.4927 13.7005 21.6659 13.7308 21.734 13.6642C22.2805 13.1209 22.8077 12.559 23.3289 12.0131C21.6785 12.0131 20.0112 11.9423 18.3515 12.0282C15.0657 12.1993 12.4711 14.7367 12.1297 18.0188C11.9498 19.7534 12.0978 21.4938 12.1221 23.2832C12.6081 22.7676 13.089 22.2478 13.5817 21.739Z"
    />
    <path
      d="M43.9895 35.5347C44.0038 34.6046 43.9929 33.6746 43.9929 32.6392C43.4598 33.1893 42.9587 33.6249 42.5383 34.1421C42.2954 34.2887 42.2373 34.5094 42.2365 34.7841C42.2348 35.9205 42.3441 37.0654 42.1903 38.1917C41.8724 40.5193 39.9857 42.1975 37.6172 42.2952C36.6243 42.3365 35.6288 42.3036 34.6341 42.3053C34.4828 42.3061 34.3306 42.2792 34.2036 42.4114C33.695 42.9397 33.1796 43.462 32.6188 44.0357C34.5206 43.9885 36.3653 44.1081 38.2075 43.9548C38.4572 43.9346 38.7069 43.8823 38.9516 43.8267C41.7001 43.1991 43.8735 40.623 43.9063 37.9583C43.9223 37.9196 43.9391 37.8825 43.9391 37.8387V37.768C44.0526 37.0266 43.9786 36.2785 43.9895 35.5347Z"
    />
  </g>
</svg>
